<?xml version="1.0" encoding="utf-8"?>
<!-- Generator: Adobe Illustrator 24.0.0, SVG Export Plug-In . SVG Version: 6.00 Build 0)  -->
<svg version="1.1" id="slynite-logo" xmlns="http://www.w3.org/2000/svg" xmlns:xlink="http://www.w3.org/1999/xlink" x="0px"
	 y="0px" viewBox="0 0 3840 2160" style="enable-background:new 0 0 3840 2160;" xml:space="preserve">
<style type="text/css">
	.st0{fill:none;stroke:#FFFFFF;stroke-width:67;stroke-miterlimit:10;}
</style>
<path class="st0" d="M2333.76,482.02"/>
<path class="st0" d="M1432.72,1553.05"/>
<path class="st0" d="M1798.33,934.89"/>
<path class="st0" d="M1173.8,1305.36c-21.77-71.52-33.17-147.22-32.46-225.36c0-428.27,350.4-778.67,778.67-778.67
	c81.46,0,160.1,12.68,234.05,36.16c-439.73,588.39-879.47,1176.79-879.47,1176.79s-0.08,0.1-0.15,0.2
	C1230.82,1450.69,1196.61,1380.32,1173.8,1305.36z M1886.24,1857.67c-208.41-10.57-396.11-102.51-530.97-243.54
	c16.93-22.94,909.2-1231.8,909.28-1231.91c256.68,127.68,434.12,393.01,434.12,697.77c0,428.27-350.4,778.67-778.67,778.67
	C1908.69,1858.57,1897.44,1858.24,1886.24,1857.67z"/>
<path class="st0" d="M1614.33,1537"/>
</svg>
