<?xml version="1.0" encoding="utf-8"?>
<!-- Generator: Adobe Illustrator 24.0.0, SVG Export Plug-In . SVG Version: 6.00 Build 0)  -->
<svg version="1.1" id="slynite-logo" xmlns="http://www.w3.org/2000/svg" xmlns:xlink="http://www.w3.org/1999/xlink" x="0px"
	 y="0px" viewBox="0 0 14400 14400" style="enable-background:new 0 0 14400 14400;" xml:space="preserve">
<style type="text/css">
	.st0{fill:none;stroke:#FFFFFF;stroke-width:67;stroke-miterlimit:10;}
	.st1{fill:#FFFFFF;}
	.st2{font-family:'BebasNeue-Regular';}
	.st3{font-size:808.9773px;}
</style>
<path class="st0" d="M7613.26,6601.52"/>
<path class="st0" d="M6712.22,7672.55"/>
<path class="st0" d="M7077.83,7054.39"/>
<path class="st0" d="M6893.83,7656.5"/>
<g>
	<path class="st0" d="M5339.91,7425.36c-21.77-71.52-33.17-147.22-32.46-225.36c0-428.27,350.4-778.67,778.67-778.67
		c81.46,0,160.1,12.68,234.05,36.16c-439.73,588.39-879.47,1176.79-879.47,1176.79s-0.08,0.1-0.15,0.2
		C5396.94,7570.69,5362.73,7500.32,5339.91,7425.36z M6052.36,7977.67c-208.41-10.57-396.11-102.5-530.97-243.54
		c16.93-22.94,909.2-1231.8,909.28-1231.91c256.68,127.68,434.12,393.01,434.12,697.77c0,428.27-350.4,778.67-778.67,778.67
		C6074.81,7978.57,6063.55,7978.24,6052.36,7977.67z"/>
	<rect x="7037.72" y="6386.07" class="st1" width="67" height="1627.85"/>
	<text transform="matrix(1 0 0 1 7230.5332 7486.708)" class="st1 st2 st3">Slynite</text>
</g>
</svg>
